<?xml version="1.0" encoding="UTF-8"?>
<!-- Do not edit this file with editors other than diagrams.net -->
<!DOCTYPE svg PUBLIC "-//W3C//DTD SVG 1.1//EN" "http://www.w3.org/Graphics/SVG/1.1/DTD/svg11.dtd">
<svg xmlns="http://www.w3.org/2000/svg" xmlns:xlink="http://www.w3.org/1999/xlink" version="1.1" width="285px" height="91px" viewBox="-0.5 -0.5 285 91" content="&lt;mxfile host=&quot;drawio-plugin&quot; modified=&quot;2026-04-15T05:19:30.993Z&quot; agent=&quot;Mozilla/5.0 (X11; Linux x86_64) AppleWebKit/537.36 (KHTML, like Gecko) Chrome/137.0.0.0 Safari/537.36&quot; etag=&quot;fVzhsnS0KzGHifENjxHu&quot; version=&quot;22.1.22&quot; type=&quot;embed&quot;&gt;&lt;diagram id=&quot;23iRSUPoRavnBvh4doch&quot; name=&quot;Page-1&quot;&gt;xVbbctowEP0aD01n0jEyOPCInaR9aV8y0z4LW9gKsuTKMoZ+fVcXYxw7lDZDM8OAdPai3bMrVl4QF/vPEpf5V5ES5iE/3XvBvYfQ/G4G3xo4WCBAgQUySVMLTTvgif4iDvQdWtOUVD1FJQRTtOyDieCcJKqHYSlF01fbCNY/tcQZGQBPCWZD9AdNVW7RBbrr8C+EZnl78jRcWkmBW2WXSZXjVDQnUPDgBbEUQtlVsY8J09y1vFi7x1ekx8Ak4eoSA2QNdpjVLrdCScEtd5WAhG2Y6tDmXjW0YJjDLmpyqshTiRMtaqDSgOWqYLCbwnJDGYsFExL2XBiLaktUkjt5UssdeaRKUZ456JlmmTkIiIhcaEQqsn81vemRNGg2Igqi5AFUWoOF49k1Wrttuqqhheu9/KRiS6eHXaNkR88dl7BwdI5TGwyo9VDIlCZGQPTQdpY4QH/Wut5RLGpJiQTRN9J0cI//FtQ+bitzM1agsCz3RrOzCTP966oZ4kIXJ3PuPgLfq+86ExR9ErX6sOVwJ27McpJIghVJJzdHM76uSuvThL+WoxEND28N4CCbch9O6e4tqb0Dm+2RVYn5qJ81TraZFDVPbxPb+dod5VRRzC7J4t9DAxtj1qv0Wf4BtolYuBIb1cDN0ufAZx7BLc8GPifPeIcnHoo5LshQKmlZMjLx5vfezG+7bP7nQEwvXKU9rur8f/beSIEHJRsvChOlrti5evbqFbxnvd56EUb/8cb/yC5M78UAhGmk+oMOM5pxWDOy0RI9sSg8FlYOLmiaauNIEggfr40jH/aloFyZCTOPdAXAU62ETdE4riCXLXkxQ0fGqs7CvZKm/lXGLDo7Zme9IYvCkSHrD4ds+PdDFrbd28jITh6YwcNv&lt;/diagram&gt;&lt;/mxfile&gt;"><defs/><g><path d="M 0 23 L 0 0 L 283 0 L 283 23" fill="none" stroke="none" pointer-events="all"/><path d="M 0 23 M 0 23 C 2.52 14.54 -4.16 10.22 0 0 M 0 23 C -0.19 18.27 -0.95 14.29 0 0 M 0 0 C 69.29 4.78 138.42 4.76 283 0 M 0 0 C 113.31 -2.23 223.86 -1.82 283 0 M 283 0 C 284.5 9.66 284.84 10.99 283 23 M 283 0 C 282.26 7.87 284.07 14.85 283 23" fill="none" stroke="rgb(0, 0, 0)" stroke-linejoin="round" stroke-linecap="round" stroke-miterlimit="10" pointer-events="all"/><path d="M 0 23 M 0 23 C 3.92 32.57 -2.76 46.28 0 90 M 0 23 C -0.32 39.1 -1.08 55.96 0 90 M 0 90 C 69.29 94.78 138.42 94.76 283 90 M 0 90 C 113.31 87.77 223.86 88.18 283 90 M 283 90 C 283.58 74.23 283.92 50.13 283 23 M 283 90 C 282.06 69.65 283.87 48.4 283 23" fill="none" stroke="rgb(0, 0, 0)" stroke-linejoin="round" stroke-linecap="round" stroke-miterlimit="10" pointer-events="none"/><path d="M 0 23 M 0 23 C 58.89 18.28 110.51 18.49 283 23 M 0 23 C 65.35 24.06 130.28 25.08 283 23" fill="none" stroke="rgb(0, 0, 0)" stroke-linejoin="round" stroke-linecap="round" stroke-miterlimit="10" pointer-events="none"/><g transform="translate(-0.5 -0.5)"><switch><foreignObject pointer-events="none" width="100%" height="100%" requiredFeatures="http://www.w3.org/TR/SVG11/feature#Extensibility" style="overflow: visible; text-align: left;"><div xmlns="http://www.w3.org/1999/xhtml" style="display: flex; align-items: unsafe center; justify-content: unsafe center; width: 281px; height: 1px; padding-top: 12px; margin-left: 1px;"><div data-drawio-colors="color: rgb(0, 0, 0); " style="box-sizing: border-box; font-size: 0px; text-align: center;"><div style="display: inline-block; font-size: 12px; font-family: Helvetica; color: rgb(0, 0, 0); line-height: 1.2; pointer-events: all; font-weight: bold; white-space: normal; overflow-wrap: normal;">mtron console</div></div></div></foreignObject><text x="142" y="15" fill="rgb(0, 0, 0)" font-family="Helvetica" font-size="12px" text-anchor="middle" font-weight="bold">mtron console</text></switch></g><rect x="4" y="26" width="280" height="60" fill="none" stroke="none" pointer-events="all"/><g transform="translate(-0.5 -0.5)"><switch><foreignObject pointer-events="none" width="100%" height="100%" requiredFeatures="http://www.w3.org/TR/SVG11/feature#Extensibility" style="overflow: visible; text-align: left;"><div xmlns="http://www.w3.org/1999/xhtml" style="display: flex; align-items: unsafe center; justify-content: unsafe flex-start; width: 1px; height: 1px; padding-top: 56px; margin-left: 6px;"><div data-drawio-colors="color: rgb(0, 0, 0); " style="box-sizing: border-box; font-size: 0px; text-align: left;"><div style="display: inline-block; font-size: 10px; font-family: Helvetica; color: rgb(0, 0, 0); line-height: 1.2; pointer-events: all; white-space: nowrap;"><font style="font-size: 9px;" face="Courier New">mtron&gt; *g:V/+.out(knows).out('created') <br style="" /></font><div style="font-size: 9px;"><font style="font-size: 9px;" face="Courier New"><span style="background-color: initial;"><font style="font-size: 9px;">==&gt;</font></span>software::[lang=&gt;'java',name=&gt;'ripple']@g:V/5</font></div><div style="font-size: 9px;"></div><div style="font-size: 9px;"><font style="font-size: 9px;" face="Courier New">==&gt;software::[name=&gt;'lop',lang=&gt;'java']@g:V/3</font></div><div style="font-size: 9px;"><font style="font-size: 9px;">mtron&gt; </font></div></div></div></div></foreignObject><text x="6" y="59" fill="rgb(0, 0, 0)" font-family="Helvetica" font-size="10px">mtron&gt; *g:V/+.out(knows).out('created')...</text></switch></g></g><switch><g requiredFeatures="http://www.w3.org/TR/SVG11/feature#Extensibility"/><a transform="translate(0,-5)" xlink:href="https://www.drawio.com/doc/faq/svg-export-text-problems" target="_blank"><text text-anchor="middle" font-size="10px" x="50%" y="100%">Text is not SVG - cannot display</text></a></switch></svg>