<?xml version="1.0" encoding="UTF-8"?>
<!-- Do not edit this file with editors other than diagrams.net -->
<!DOCTYPE svg PUBLIC "-//W3C//DTD SVG 1.1//EN" "http://www.w3.org/Graphics/SVG/1.1/DTD/svg11.dtd">
<svg xmlns="http://www.w3.org/2000/svg" xmlns:xlink="http://www.w3.org/1999/xlink" version="1.1" width="223px" height="136px" viewBox="-0.5 -0.5 223 136" content="&lt;mxfile host=&quot;drawio-plugin&quot; modified=&quot;2026-04-20T16:54:39.021Z&quot; agent=&quot;Mozilla/5.0 (X11; Linux x86_64) AppleWebKit/537.36 (KHTML, like Gecko) Chrome/137.0.0.0 Safari/537.36&quot; etag=&quot;i9mFAEVRgtqLhZf9-sR8&quot; version=&quot;22.1.22&quot; type=&quot;embed&quot;&gt;&lt;diagram id=&quot;23iRSUPoRavnBvh4doch&quot; name=&quot;Page-1&quot;&gt;7VfbjtsgEP0aS+1DKxsnjvO4m2zah7ZaNZX6TGxi02BwMbl4v75gwDZ2srdWq65aKUrgMDPMnBkY4oWL4vSBwzL/zFJEPOCnJy9cegAEfhTJH4XUGpnEcw1kHKdGqAPW+A5ZTYPucYoqR1AwRgQuXTBhlKJEOBjknB1dsS0j7q4lzNAIWCeQjNHvOBW5RmMw6/CPCGe53TmITHwFtMImkiqHKTv2oPDGCxecMaFHxWmBiCLP8qL1VhdWW8c4ouIxCqFWOECyN7GJulTUXnkgItLE9YbLUaZGFknxQXkuakNH9HPPzHo3cjSqEtKzKhuY7DLO9jR9lzDCeLOvjykWGJJLJmFRygHdVOoHKpWet1bum0Vk7C3oTa+9cCW/dSUaS80SVnw9xdJSfboVHaIbtoQbrv5i+jbPoq8e0fe0NIDF62fOUyfrmdDdiL9K8H+h/DCtRP9yeT2en8niVh4G2OLa8XC5efPEq+StN1PWsve5KpbZS2V1aAc4+qAhB6kuEcjlY44FWpcwUatH2dQllouCmGVIcEblmKCtMrZlVKxggYm6JxZszzGSTcT/go46Jwmm2VfTHv0OcmefGlvLoIF2SCS52SzZ8wNaYSG0ioJ+4CxrHAdqd0zIQid1SRlFbXQHxAU6XWyUQdt+5bsFsQIJXksRqxBMtUpt50DPj90DIJibrp47zd+A0Dw6stZ215flwLTm8206GrXpUcIQTa/U00bOEgKrCieqLGCVt0nsJUzht1AIxGmDAD/UlxDbtS8aJddVgW+Zt9bkfitMrEHtDkpH76YH+e3xNz1Dn8U4IlDgg2v+HKVmh1umjmGXvtB30zcZZKWSZZogo9V/MA0NTV1DYJheAXmGxMiQzA2se2KlEqguOzwf+Dv173UrHojH94sH/iCK4TPxAfrAxJGXAx1fV8xthh9V3/P/9f2b9Q3iQb1Ez6zv+IXq+7y/F+t7IB7fLx74rry9QS/KTwZRP3DcgtkfPQ9y2v3l0+LdH+fw5hc=&lt;/diagram&gt;&lt;/mxfile&gt;"><defs/><g><rect x="32" y="0" width="190" height="110" rx="16.5" ry="16.5" fill="none" stroke="none" pointer-events="all"/><path d="M 48.5 0 M 48.5 0 C 80.55 3.28 110.98 3.96 205.5 0 M 48.5 0 C 94.32 -0.44 144.36 -0.65 205.5 0 M 205.5 0 C 215.74 2.79 218.14 4.39 222 16.5 M 205.5 0 C 216.89 -4.55 219.28 8.86 222 16.5 M 222 16.5 C 220.69 31.7 220.89 50.48 222 93.5 M 222 16.5 C 220.29 40.91 223.21 70.08 222 93.5 M 222 93.5 C 219.64 102.34 219.89 111.88 205.5 110 M 222 93.5 C 225.57 101 218.17 109.47 205.5 110 M 205.5 110 C 161.39 111.37 112.96 106.72 48.5 110 M 205.5 110 C 159.74 109.42 111.28 111.7 48.5 110 M 48.5 110 C 36.06 106.86 31.18 107.03 32 93.5 M 48.5 110 C 38.72 111.72 31.97 106.48 32 93.5 M 32 93.5 C 29.04 66.83 33.98 45.82 32 16.5 M 32 93.5 C 30.52 71.58 30.31 52.22 32 16.5 M 32 16.5 C 35.49 8.92 35.05 -2.49 48.5 0 M 32 16.5 C 36.07 1.64 33.55 0.08 48.5 0" fill="none" stroke="rgb(0, 0, 0)" stroke-linejoin="round" stroke-linecap="round" stroke-miterlimit="10" pointer-events="all"/><g transform="translate(-0.5 -0.5)"><switch><foreignObject pointer-events="none" width="100%" height="100%" requiredFeatures="http://www.w3.org/TR/SVG11/feature#Extensibility" style="overflow: visible; text-align: left;"><div xmlns="http://www.w3.org/1999/xhtml" style="display: flex; align-items: unsafe center; justify-content: unsafe flex-start; width: 182px; height: 1px; padding-top: 55px; margin-left: 42px;"><div data-drawio-colors="color: rgb(0, 0, 0); " style="box-sizing: border-box; font-size: 0px; text-align: left;"><div style="display: inline-block; font-size: 12px; font-family: &quot;Courier New&quot;; color: rgb(0, 0, 0); line-height: 1.2; pointer-events: all; white-space: normal; overflow-wrap: normal;">types:<br /><div style=""><span style="background-color: initial;"> a::<b>T</b>[?[x=&gt;int::<b>T</b>]]</span></div><div style=""><span style="background-color: initial;"> b::<b>T</b>[?[y=&gt;a::<b>T</b>,</span></div><div style=""><span style="background-color: initial;">        z=&gt;str::<b>T</b>]]</span></div><div style=""><span style="background-color: initial;">insts:</span></div><div style=""><span style="background-color: initial;">  f?a&lt;=b(int::<b>T</b>){ g.h }</span></div><div style=""></div></div></div></div></foreignObject><text x="42" y="59" fill="rgb(0, 0, 0)" font-family="Courier New" font-size="12px">types:...</text></switch></g><path d="M 47 28 Q 7 38 2 53 Q -3 68 7 88 Q 17 108 32 118 Q 47 128 63.47 103.3" fill="none" stroke="rgb(0, 0, 0)" stroke-miterlimit="10" stroke-dasharray="1 3" pointer-events="stroke"/><path d="M 66.38 98.93 L 65.41 106.7 L 63.47 103.3 L 59.58 102.81 Z" fill="rgb(0, 0, 0)" stroke="rgb(0, 0, 0)" stroke-miterlimit="10" pointer-events="all"/><path d="M 45 44 Q 15 44 10 59 Q 5 74 15 94 Q 25 114 41 126 Q 57 138 72 133 Q 87 128 94.99 104.04" fill="none" stroke="rgb(0, 0, 0)" stroke-miterlimit="10" stroke-dasharray="1 3" pointer-events="stroke"/><path d="M 96.65 99.06 L 97.75 106.81 L 94.99 104.04 L 91.11 104.59 Z" fill="rgb(0, 0, 0)" stroke="rgb(0, 0, 0)" stroke-miterlimit="10" pointer-events="all"/></g><switch><g requiredFeatures="http://www.w3.org/TR/SVG11/feature#Extensibility"/><a transform="translate(0,-5)" xlink:href="https://www.drawio.com/doc/faq/svg-export-text-problems" target="_blank"><text text-anchor="middle" font-size="10px" x="50%" y="100%">Text is not SVG - cannot display</text></a></switch></svg>